<?xml version="1.0" encoding="UTF-8"?>
<svg id="Layer_1" xmlns="http://www.w3.org/2000/svg" version="1.1" viewBox="0 0 224.41 100.9">
  <!-- Generator: Adobe Illustrator 29.6.1, SVG Export Plug-In . SVG Version: 2.1.1 Build 9)  -->
  <path d="M48.22,65.19c.12,0,.23-.04.33-.12,2.33-2,4.73-4.07,7.38-5.7,1.95-1.21,4.04-2.16,6.22-2.88-1.34,1.37-2.5,2.88-3.15,4.72-.09.26.05.55.31.64.26.09.55-.05.64-.31,1.01-2.87,3.35-4.87,5.83-6.99.83-.71,1.69-1.44,2.48-2.2.76-.73,1.47-1.5,2.17-2.27.02.29-.02.58-.12.85-.09.23-.22.44-.37.68-1.27,2-2.72,3.9-4.31,5.65-.14.15-.13.39.03.53.07.07.16.1.25.1.1,0,.2-.04.28-.12,1.62-1.78,3.09-3.71,4.39-5.75.17-.27.33-.52.44-.81.23-.57.24-1.23.06-1.82l6.89-7.59c-.07.46-.24.95-.52,1.47-.21.38-.45.75-.69,1.11-.27.41-.55.83-.79,1.28-.63,1.19-.96,2.6-.97,4.1,0,.21.17.38.37.38h0c.21,0,.37-.17.38-.37,0-1.37.31-2.67.88-3.75.22-.42.48-.8.75-1.21.25-.38.51-.76.73-1.16.24-.44.4-.86.51-1.28.09,1.07.11,2.16.12,3.23.02,2.13.04,4.31.7,6.37-.31.55-.5,1.14-.69,1.72l-.14.44c-.19.58-.45,1.24-.88,1.79-.13.16-.1.4.07.53.07.05.15.08.23.08.11,0,.22-.05.3-.14.5-.64.78-1.38,1-2.02l.15-.45c.11-.34.21-.67.34-.99.56,1.29,1.37,2.44,2.17,3.5.61.8,1.25,1.57,1.9,2.33-.1.1-.2.21-.29.32-1.09,1.29-2.29,2.49-3.58,3.57-.16.13-.18.37-.05.53.07.09.18.13.29.13.08,0,.17-.03.24-.09,1.32-1.11,2.56-2.34,3.69-3.67.07-.08.13-.15.2-.22,1.19,1.36,2.45,2.66,3.76,3.89l.42.39c.78.72,1.58,1.46,2.22,2.3.51.67.92,1.4,1.35,2.17l.36.63c1.65,2.87,3.69,5.49,6.07,7.79.1.09.22.14.35.14s.26-.05.36-.15c.19-.2.19-.51-.01-.71-2.31-2.24-4.3-4.79-5.9-7.57l-.35-.62c-.43-.77-.88-1.56-1.43-2.29-.69-.91-1.53-1.68-2.34-2.43l-.42-.39c-2.19-2.04-4.22-4.29-6.04-6.67-.8-1.05-1.62-2.21-2.14-3.47-.86-2.1-.88-4.37-.9-6.76-.01-1.64-.04-3.33-.34-4.98,2.08,1.59,3.9,3.56,5.66,5.48,1.45,1.59,2.96,3.23,4.62,4.66,2.73,2.35,5.9,4.16,8.96,5.91,3,1.71,6.09,3.47,8.73,5.73.09.08.21.12.33.12.14,0,.28-.06.38-.17.18-.21.16-.53-.05-.71-2.71-2.32-5.85-4.11-8.88-5.84-.38-.22-.76-.44-1.14-.66,1.29-.92,2.69-1.67,4.18-2.22l.43-.15c.58-.21,1.19-.42,1.75-.75.86-.51,1.44-1.22,1.64-2.01.1-.39.09-.77.09-1.13l-.02-3.51c.46-.47.91-.99,1.17-1.66.43-1.12.25-2.45-.57-4.06-.12-.25-.25-.49-.39-.73-.47-.87-.91-1.7-1.04-2.6,0,0,0,0,0,0,1.17-1.53,2.26-3.13,3.24-4.78.31-.52.61-1.08.56-1.73-.06-.81-.62-1.35-1.11-1.83-.32-.31-.62-.61-.77-.95-.33-.72.04-1.63.45-2.44.16-.04.32-.06.49-.05.65.04,1.26.49,1.87,1,6.43,5.25,12.23,11.26,17.25,17.87.56.73,1.03,1.4,1.15,2.16.04.25.25.42.49.42.03,0,.05,0,.08,0,.27-.04.46-.3.42-.57-.16-.99-.72-1.8-1.34-2.61-2.26-2.98-4.7-5.84-7.26-8.57,0,0,0-.01.01-.02.17-.58.51-.97,1-1.17.69-.28,1.59-.12,2.11.18.81.46,1.37,1.26,1.96,2.12l.29.42c1.72,2.42,4,4.48,6.58,5.96.95.55,1.97,1.03,2.95,1.49,2.2,1.04,4.27,2.02,5.81,3.72.72.79,1.28,1.69,1.87,2.64.36.57.71,1.15,1.1,1.7,1.42,2,3.28,3.61,5.07,5.18.09.08.21.12.33.12.14,0,.28-.06.38-.17.18-.21.16-.52-.05-.71-1.75-1.53-3.56-3.1-4.91-5-.38-.53-.72-1.09-1.07-1.64-.34-.55-.69-1.11-1.08-1.65.03-.02.06-.04.08-.07.9-1.27,2.21-2.23,3.47-3.16l6.37-4.7c.55-.41,1.08-.79,1.66-1.08.03-.01.05-.02.07-.03,0,.39-.18.79-.35,1.21-.07.16-.13.32-.19.47-.42,1.11-.49,2.29-.42,3.48-.78,1.05-1.79,1.91-2.96,2.47-.19.09-.27.31-.18.5.06.13.2.21.34.21.05,0,.11-.01.16-.04,1.05-.5,1.98-1.21,2.75-2.07.04.34.09.67.15,1.01.07.41.14.83.01,1.14-.07.16-.2.32-.35.5-.96,1.11-2.04,2.11-3.21,2.98-.22.16-.27.48-.1.7.1.13.25.2.4.2.1,0,.21-.03.3-.1,1.23-.91,2.37-1.97,3.38-3.13.2-.24.39-.47.52-.77.24-.58.13-1.19.05-1.68-.29-1.7-.47-3.49.11-5.04.05-.15.12-.29.18-.44.07-.18.15-.36.21-.55.04.02.08.04.13.07,1.16.62,3.1,1.65,5.24,1.65,1.41,0,8.69,8.28,14.92,16.28.1.13.25.19.39.19.11,0,.22-.03.31-.11.22-.17.26-.48.09-.7-2.17-2.78-13.11-16.66-15.71-16.66-1.89,0-3.69-.96-4.77-1.53-.14-.07-.27-.14-.38-.2,0-.02,0-.04,0-.06,0-.35-.1-.62-.31-.8s-.59-.34-1.2-.03c-.66.33-1.24.76-1.82,1.19l-6.35,4.69c-1.28.94-2.58,1.92-3.57,3.24-.09-.11-.18-.23-.28-.34-1.67-1.84-3.94-2.91-6.12-3.95-.96-.46-1.96-.93-2.88-1.46-2.46-1.41-4.62-3.37-6.26-5.67l-.29-.41c-.63-.91-1.28-1.84-2.29-2.41-.73-.42-1.94-.65-2.98-.24-.62.25-1.09.7-1.39,1.32-2.96-3.08-6.1-5.98-9.4-8.68-.72-.58-1.5-1.16-2.45-1.22-1.09-.06-2.03.58-2.64,1.07-.97.77-1.82,1.67-2.64,2.55-.68.72-1.38,1.47-2.14,2.12-.46.39-.93.76-1.41,1.12-.46.35-.92.7-1.36,1.08-1.75,1.49-3.18,3.32-4.56,5.09-.3.39-.61.79-.92,1.18-.6.04-1.36.32-2.17.66l-.37.15c-2.89,1.13-4.8,2.24-7.19,3.69-1.04-1.01-2.13-1.98-3.32-2.82-.21-.15-.49-.12-.66.07l-8.75,9.64c-.78.86-1.58,1.74-2.43,2.55-.77.74-1.62,1.46-2.44,2.16-.48.41-.95.82-1.42,1.23-.07-.01-.13,0-.2,0-2.86.76-5.58,1.94-8.1,3.49-2.71,1.67-5.15,3.77-7.5,5.8-.21.18-.23.5-.05.71.1.12.24.17.38.17ZM90.26,39.42l.39-.16c.2-.08.45-.19.72-.29-.63.74-1.29,1.45-2,2.1-.2.19-.22.5-.03.71.19.2.5.22.71.03,1.55-1.41,2.85-3.08,4.1-4.69,1.35-1.73,2.74-3.52,4.42-4.94.43-.36.87-.7,1.32-1.04.5-.38.99-.75,1.46-1.16.79-.68,1.51-1.45,2.21-2.19.3-.31.6-.63.91-.94-.31.59-.58,1.21-.83,1.81-.58,1.37-1.13,2.67-2.19,3.53-.21.17-.25.49-.07.7.1.12.24.19.39.19.11,0,.22-.04.31-.11,1.25-1.01,1.88-2.49,2.48-3.92.43-1.01.85-1.96,1.46-2.76,0,.37.04.74.21,1.1.23.51.61.88.98,1.25.42.41.78.76.81,1.2.03.36-.18.75-.42,1.15-1.84,3.09-4.02,5.98-6.5,8.59-.19.2-.18.52.02.71.1.09.22.14.34.14.13,0,.26-.05.36-.16.91-.96,1.76-1.97,2.59-2.99.23.74.59,1.42.95,2.08.13.24.25.47.37.71.68,1.34.85,2.41.53,3.25-.24.63-.76,1.14-1.27,1.64l-3.98,3.91c-.2.19-.2.51,0,.71.1.1.23.15.36.15s.25-.05.35-.14l3.32-3.26.02,2.54c0,.32,0,.62-.06.89-.17.71-.81,1.17-1.17,1.39-.48.28-1.01.47-1.57.67l-.44.16c-1.69.62-3.28,1.47-4.72,2.55-.03.02-.04.05-.06.07-2.35-1.37-4.68-2.83-6.72-4.6-1.62-1.39-3.1-3.01-4.54-4.58-.76-.83-1.53-1.66-2.33-2.47,2.25-1.36,4.1-2.42,6.83-3.49Z"/>
  <path d="M114.08,43.43l.11-.21c.1-.18.03-.41-.15-.51-.18-.1-.41-.03-.51.15l-.11.19c-.13.24-.29.51-.35.75-.39,1.43-.66,2.56-.68,4.06,0,.3,0,.62.16.92.22.44.64.65,1.02.83.14.07.28.14.41.22.83.54.99,1.74,1.04,2.95l.15,3.66c0,.2.17.36.38.36h.02c.21,0,.37-.18.36-.39l-.15-3.66c-.06-1.41-.26-2.82-1.38-3.55-.15-.1-.32-.18-.49-.27-.31-.15-.57-.28-.68-.5-.08-.15-.08-.36-.08-.58.01-1.42.27-2.45.65-3.87.04-.15.17-.38.28-.57Z"/>
  <path d="M121.99,46.33c-.24-.19-.5-.55-.7-.96-.09-.19-.31-.26-.5-.18-.19.09-.27.31-.18.5.25.52.58.97.91,1.23,1.34,1.06,1.93,2.16,2.45,3.61.05.15.2.25.35.25.04,0,.08,0,.13-.02.2-.07.3-.28.23-.48-.55-1.52-1.22-2.78-2.69-3.94Z"/>
  <path d="M143.15,67.96c-1.7-.92-3.03-2.49-3.66-4.31-.06-.19-.12-.38-.18-.56-.18-.61-.38-1.24-.78-1.79-.42-.58-1.01-.96-1.57-1.32-.43-.28-.84-.55-1.17-.89-.37-.38-.63-.85-.89-1.34-.56-1.06-1.09-2.16-1.55-3.27-.08-.19-.3-.28-.49-.2-.19.08-.28.3-.2.49.48,1.13,1.01,2.25,1.58,3.33.28.52.58,1.06,1.01,1.51.39.4.85.71,1.3,1,.53.35,1.04.67,1.38,1.14.32.44.49.98.66,1.56.06.2.12.4.19.59.69,2,2.15,3.72,4.01,4.73.06.03.12.04.18.04.13,0,.26-.07.33-.2.1-.18.03-.41-.15-.51Z"/>
  <path d="M129.25,68.39c-.06-.82-.11-1.67-.56-2.41-.29-.49-.71-.86-1.11-1.22-.16-.14-.31-.28-.46-.42-.75-.75-1.3-1.73-1.53-2.77-.04-.2-.24-.33-.45-.29-.2.04-.33.25-.29.45.26,1.18.87,2.29,1.73,3.14.16.15.32.3.49.45.37.33.73.65.96,1.04.35.59.4,1.32.45,2.08.02.32.04.64.09.96.27,1.95,1.39,3.64,2.38,5.14.07.11.19.17.31.17.07,0,.14-.02.21-.06.17-.11.22-.35.11-.52-.94-1.43-2.01-3.05-2.26-4.83-.04-.3-.06-.6-.08-.91Z"/>
  <path d="M81.83,68.11c.06.04.13.06.2.06.12,0,.25-.06.32-.18.62-.98,1.48-1.84,2.28-2.6.52-.49,1.05-1,1.36-1.69.08-.19,0-.41-.19-.5-.19-.08-.41,0-.5.19-.25.55-.73,1.01-1.23,1.48-.8.76-1.7,1.65-2.37,2.71-.11.17-.06.41.12.52Z"/>
  <path d="M83.46,62.71c-.15-.15-.38-.15-.53,0-.92.91-1.79,1.88-2.59,2.9-.13.16-.1.4.06.53.07.05.15.08.23.08.11,0,.22-.05.29-.14.78-.99,1.63-1.94,2.53-2.83.15-.15.15-.38,0-.53Z"/>
  <path d="M78.22,65.77c.31-.29.56-.52.86-.65.19-.08.27-.31.19-.5s-.31-.27-.5-.19c-.44.2-.79.53-1.07.79-.74.69-1.47,1.4-2.2,2.13-.28.28-.55.55-.87.71-.19.09-.26.31-.17.5.06.13.2.21.34.21.05,0,.11-.01.16-.04.43-.21.76-.54,1.09-.86.71-.71,1.44-1.41,2.17-2.1Z"/>
  <path d="M80.11,58.04c-.16-.14-.39-.12-.53.03-1.17,1.34-2.34,2.68-3.51,4.02-.14.16-.12.39.04.53.07.06.16.09.25.09.1,0,.21-.04.28-.13,1.17-1.34,2.34-2.68,3.51-4.02.14-.16.12-.39-.03-.53Z"/>
  <path d="M73.27,64.3c-.48.54-.91,1.12-1.34,1.68-.79,1.06-1.55,2.05-2.54,2.81-.17.12-.2.36-.07.53.07.1.19.15.3.15.08,0,.16-.02.23-.08,1.08-.82,1.9-1.91,2.69-2.96.41-.55.84-1.12,1.3-1.64.14-.15.12-.39-.03-.53-.15-.14-.39-.12-.53.03Z"/>
  <path d="M96.68,41.53c.08,0,.17-.03.24-.08.39-.32.72-.7,1.02-1.06.8-.96,1.56-1.98,2.26-3.02.12-.17.07-.41-.1-.52-.17-.12-.4-.07-.52.1-.68,1.02-1.43,2.01-2.21,2.96-.27.33-.57.68-.91.96-.16.13-.18.37-.05.53.07.09.18.14.29.14Z"/>
  <path d="M90.75,45.81c.12,0,.24-.06.31-.17.63-.94,1.3-1.87,1.99-2.78.12-.17.09-.4-.07-.53-.17-.13-.4-.09-.53.07-.69.91-1.37,1.86-2.01,2.81-.12.17-.07.4.1.52.06.04.14.06.21.06Z"/>
  <path d="M99.8,44.52l-.59.92c-.4.62-.81,1.27-1.17,1.94-.1.18-.03.41.15.51.06.03.12.04.18.04.13,0,.26-.07.33-.2.34-.64.75-1.28,1.14-1.89l.59-.92c.11-.17.06-.41-.11-.52-.17-.11-.41-.06-.52.11Z"/>
  <path d="M143.99,40.51c.09,0,.18-.03.25-.1l1.45-1.3c.33-.29.47-.49.85-1.03.12-.17.08-.4-.09-.52-.17-.12-.4-.08-.52.09-.36.51-.47.67-.73.9l-1.45,1.3c-.15.14-.17.38-.03.53.07.08.18.12.28.12Z"/>
  <polygon points="103.9 12.49 106.91 10.31 109.93 12.49 108.77 8.95 111.79 6.77 108.06 6.77 106.91 3.23 105.76 6.77 102.04 6.77 105.05 8.95 103.9 12.49"/>
  <path d="M23.26,92.27c.03-.13.05-.21.05-.24,0-.16-.08-.32-.24-.48-.02-.03-.05-.08-.11-.16-.06-.07-.11-.17-.16-.29-.05-.12-.07-.27-.07-.44,0-.21.03-.42.1-.62l2.35-8.17c.16-.53.24-1.04.24-1.54,0-1.18-.45-2.11-1.34-2.77-.9-.66-2.16-1-3.79-1-1.46,0-2.63.31-3.52.92-.89.62-1.66,1.61-2.32,2.99l-4.27,8.86c-.21.42-.46.74-.74.97-.29.23-.67.47-1.15.71-.37.18-.64.34-.83.49-.18.15-.28.36-.28.61,0,.22.1.4.29.54.19.14.47.2.84.2h3.58c.43,0,.75-.04.95-.13.2-.09.33-.25.4-.49.03-.14.03-.26-.01-.35-.04-.09-.12-.2-.23-.32-.13-.13-.22-.25-.29-.37-.06-.12-.1-.28-.1-.47,0-.34.14-.8.41-1.39l.65-1.37h3.75l-.62,2.07c-.11.4-.25.69-.41.86-.16.18-.37.34-.62.48-.16.1-.28.18-.37.25-.09.07-.16.17-.2.3-.05.11-.07.22-.07.31,0,.19.09.34.28.46.18.11.44.17.78.17h5.69c.45,0,.78-.04,1-.13.22-.09.36-.24.42-.47ZM19.4,81.35l-1.27,4.23h-3.36l1.97-4.2c.27-.58.54-.98.82-1.2.27-.22.6-.34.98-.34.3,0,.54.08.71.23.17.15.25.38.25.68,0,.21-.03.41-.1.6Z"/>
  <path d="M37.48,80.07c-1.36,0-2.59.7-3.67,2.09-.06-.62-.32-1.11-.78-1.46-.46-.35-1.04-.53-1.74-.53-.99,0-1.94.14-2.86.42-.91.28-1.42.6-1.51.97-.05.16-.04.29.02.38.06.1.18.21.34.34.16.11.28.22.36.32.08.1.12.24.12.42,0,.1-.02.22-.07.36l-3.51,11.5c-.11.37-.24.64-.38.8-.14.17-.34.33-.58.49-.14.06-.26.14-.34.22-.08.08-.14.18-.17.31-.08.21-.03.38.16.52.18.14.48.2.9.2h5.5c.5,0,.86-.04,1.1-.13.24-.09.39-.24.46-.44.03-.11.03-.21-.01-.29-.04-.08-.12-.18-.25-.31-.13-.11-.23-.23-.31-.35-.08-.12-.12-.27-.12-.44,0-.16.03-.33.1-.5l.77-2.57c.82.46,1.78.7,2.88.7,1.73,0,3.25-.52,4.56-1.55,1.31-1.03,2.21-2.54,2.69-4.53.21-.83.31-1.62.31-2.38,0-1.41-.35-2.52-1.06-3.34-.7-.82-1.67-1.23-2.91-1.23ZM34.69,87.2c-.42,1.49-.82,2.48-1.21,2.97-.39.49-.8.73-1.24.73-.27,0-.5-.1-.7-.29l1.9-6.29c.22-.32.45-.55.67-.68.22-.14.41-.2.55-.2.19,0,.34.05.44.16s.16.32.16.66c0,.54-.19,1.53-.58,2.95Z"/>
  <path d="M53.33,88.65c-.16,0-.46.08-.91.24-.54.18-.99.31-1.34.4-.35.09-.72.13-1.1.13-.83,0-1.48-.17-1.95-.5-.46-.34-.69-.92-.67-1.75.66.1,1.36.14,2.11.14,1.49,0,2.78-.23,3.88-.68,1.1-.46,1.77-1.21,2.01-2.27.06-.26.1-.54.1-.84,0-1.01-.46-1.84-1.37-2.49-.91-.65-2.39-.97-4.42-.97s-3.58.5-4.94,1.5c-1.35,1-2.23,2.49-2.63,4.45-.13.64-.19,1.2-.19,1.68,0,1.71.57,3.02,1.71,3.91,1.14.9,2.59,1.34,4.37,1.34,1.2,0,2.23-.22,3.07-.65.85-.43,1.49-.96,1.92-1.57.43-.62.64-1.2.62-1.77,0-.21-.09-.31-.26-.31ZM48.11,83.72c.23-.56.47-.98.71-1.26s.45-.42.62-.42c.24,0,.37.22.38.67.02.77-.15,1.46-.5,2.09-.35.62-.86.94-1.54.94-.11,0-.2,0-.26-.02.16-.77.36-1.43.59-1.99Z"/>
  <path d="M67.62,80.17c-.58,0-1.06.16-1.44.48-.38.32-.75.86-1.1,1.63l-.67,1.51c-.45-1.01-.89-1.78-1.33-2.31-.44-.53-.88-.88-1.32-1.06-.44-.18-.95-.26-1.52-.26-.91,0-1.77.29-2.57.86-.8.58-1.3,1.28-1.51,2.11-.03.16-.05.26-.05.31,0,.34.12.5.36.5.1,0,.23-.04.4-.13.17-.09.31-.13.42-.13.21,0,.4.08.56.23.17.15.37.5.61,1.03.24.54.55,1.35.94,2.44l-1.2,1.13c-.48-.34-.98-.5-1.49-.5-.43,0-.82.14-1.16.41-.34.27-.6.68-.78,1.22-.1.3-.14.62-.14.94,0,.69.22,1.26.67,1.7.45.45,1.02.67,1.73.67.53,0,.99-.17,1.38-.52.39-.34.78-.94,1.16-1.79l.6-1.34c.46,1.06.92,1.85,1.37,2.38.45.53.89.87,1.32,1.02.43.15.94.23,1.54.23s1.18-.13,1.75-.4c.58-.26,1.07-.62,1.49-1.07s.69-.94.82-1.49c.03-.16.05-.28.05-.36,0-.14-.03-.26-.1-.35-.06-.09-.14-.13-.24-.13s-.23.04-.41.13c-.18.09-.32.13-.43.13-.21,0-.39-.08-.55-.23-.16-.15-.37-.49-.62-1.02-.26-.53-.58-1.34-.98-2.43l1.2-1.13c.48.34.98.5,1.49.5.43,0,.82-.14,1.16-.41.34-.27.6-.68.78-1.22.1-.32.14-.63.14-.94,0-.67-.22-1.24-.65-1.69-.43-.46-.98-.68-1.66-.68Z"/>
  <path d="M92.4,77.86c0-.34-.12-.59-.36-.77-.24-.18-.56-.26-.96-.26-.37,0-.7.06-1,.19-.3.13-.66.36-1.09.7l-.65.5c-.59-.51-1.24-.9-1.95-1.18-.7-.27-1.51-.41-2.43-.41-1.7,0-3.29.53-4.78,1.6-1.49,1.06-2.6,2.8-3.34,5.2-.34,1.12-.5,2.16-.5,3.12,0,1.38.32,2.55.95,3.52.63.97,1.48,1.7,2.56,2.2,1.07.5,2.28.74,3.63.74s2.49-.29,3.52-.88c1.03-.58,1.84-1.24,2.43-1.98.58-.74.87-1.28.85-1.63.02-.29-.14-.58-.46-.86-.32-.29-.62-.43-.91-.43-.22,0-.44.08-.64.25-.2.17-.46.43-.78.78-.51.58-1.01,1.03-1.5,1.37-.49.34-1.11.5-1.86.5-.51,0-.92-.2-1.22-.59-.3-.39-.46-.99-.46-1.79,0-.91.21-2.05.62-3.41.5-1.62,1.05-2.83,1.66-3.64.61-.81,1.24-1.21,1.9-1.21.46,0,.82.12,1.06.36.24.24.55.74.94,1.49.34.72.64,1.23.9,1.52.26.3.6.44,1.02.44s.7-.09.9-.26c.2-.18.37-.48.52-.91l1.34-3.75c.06-.18.1-.35.1-.53Z"/>
  <path d="M106.4,84.95c0-1.42-.52-2.58-1.55-3.46-1.03-.88-2.64-1.32-4.82-1.32-1.41,0-2.73.27-3.97.8-1.24.54-2.29,1.29-3.15,2.26-.86.97-1.44,2.08-1.74,3.33-.13.61-.19,1.16-.19,1.66,0,1.47.53,2.65,1.6,3.54,1.06.89,2.71,1.33,4.94,1.33,1.41,0,2.72-.27,3.93-.8,1.21-.54,2.23-1.3,3.06-2.28.83-.98,1.4-2.13,1.71-3.45.13-.59.19-1.13.19-1.61ZM99.82,86.58c-.54,1.76-1,2.95-1.36,3.55-.36.61-.71.9-1.04.86-.19,0-.34-.06-.46-.18-.11-.12-.17-.36-.17-.71,0-.67.26-1.84.77-3.51.51-1.66.96-2.8,1.33-3.4.38-.6.73-.9,1.07-.9.19,0,.34.06.44.19.1.13.16.36.16.7,0,.7-.25,1.83-.74,3.39Z"/>
  <path d="M119.8,80.17c-.86,0-1.67.18-2.4.54-.74.36-1.43,1.01-2.09,1.96.05-.78-.16-1.4-.62-1.84-.46-.44-1.1-.66-1.9-.66-.99,0-1.94.14-2.86.42-.91.28-1.42.6-1.51.97-.05.16-.04.29.02.38.06.1.18.21.34.34.16.14.28.26.35.36.07.1.11.23.11.41,0,.14-.02.26-.05.34l-2.14,6.94c-.11.38-.25.66-.41.84-.16.18-.36.33-.6.46-.27.14-.44.31-.5.5-.05.22.02.4.2.54.18.14.48.2.9.2h5.48c.51,0,.89-.05,1.13-.14.24-.1.39-.25.46-.46.03-.11.02-.21-.02-.29-.05-.08-.13-.17-.24-.26-.14-.13-.26-.25-.34-.37-.08-.12-.12-.28-.12-.47,0-.16.03-.33.1-.5l1.49-4.9c.14-.48.38-.88.7-1.21.32-.33.66-.49,1.01-.49.19,0,.36.06.49.18.14.12.2.28.2.49,0,.13-.04.3-.12.5l-1.32,3.46c-.29.74-.43,1.4-.43,1.99.02.82.34,1.47.96,1.96.62.49,1.46.73,2.52.73.86,0,1.6-.14,2.22-.42.62-.28,1.08-.64,1.4-1.08.32-.44.47-.89.46-1.36,0-.14-.02-.27-.07-.37-.05-.1-.11-.16-.19-.16-.05,0-.14.08-.28.25-.14.17-.3.25-.49.25-.1,0-.17-.03-.23-.1-.06-.06-.08-.15-.08-.26,0-.13.02-.22.05-.29l1.46-4.73c.16-.48.24-.97.24-1.46,0-.94-.3-1.71-.9-2.31-.6-.59-1.39-.89-2.37-.89Z"/>
  <path d="M137.28,81.32c-.52-.43-1.26-.77-2.23-1.01-.97-.24-2.12-.36-3.45-.36-2.02,0-3.57.39-4.67,1.16-1.1.78-1.65,1.82-1.65,3.13,0,.61.16,1.14.49,1.59.33.45.72.82,1.19,1.12.46.3,1.06.61,1.78.95.77.37,1.33.68,1.68.95.35.26.54.58.55.95,0,.4-.14.71-.41.94-.27.22-.62.34-1.03.34-.35,0-.72-.05-1.1-.14.05-.22.07-.44.07-.65,0-.77-.28-1.4-.85-1.9-.57-.5-1.25-.74-2.05-.74-.69,0-1.24.18-1.66.53-.42.35-.62.87-.62,1.56,0,1.01.63,1.8,1.89,2.38,1.26.58,2.96.86,5.1.86,1.91,0,3.44-.31,4.61-.94,1.17-.62,1.88-1.47,2.14-2.55.06-.35.1-.59.1-.72,0-.61-.18-1.14-.54-1.59-.36-.45-.8-.82-1.32-1.12-.52-.3-1.18-.62-1.98-.97-.93-.43-1.6-.79-2.02-1.08-.42-.29-.62-.64-.62-1.06-.02-.35.11-.62.37-.82.26-.19.6-.29,1-.29.22,0,.48.04.77.12-.06.19-.1.39-.1.6,0,.61.28,1.11.83,1.51.55.4,1.23.6,2.03.6s1.4-.18,1.84-.53c.44-.35.66-.81.66-1.37s-.26-1.03-.78-1.46Z"/>
  <path d="M153.44,89.86c-.06-.1-.12-.16-.2-.16-.05,0-.14.08-.28.25-.14.17-.3.25-.49.25-.1,0-.17-.03-.23-.1-.06-.06-.08-.15-.08-.26,0-.06.02-.16.05-.29l1.95-6.36c.13-.42.19-.78.19-1.08,0-.59-.22-1.06-.66-1.42-.44-.35-1.13-.53-2.05-.53-.99,0-1.95.14-2.86.42-.91.28-1.41.6-1.49.97-.05.16-.04.29.02.38.06.1.18.21.34.34.14.11.26.22.34.32.08.1.12.24.12.42,0,.1-.02.22-.07.36l-1.46,4.83c-.19.42-.38.71-.58.89-.19.18-.44.26-.74.26-.21,0-.38-.06-.5-.17-.13-.11-.19-.28-.19-.5,0-.16.03-.33.1-.5l1.51-5c.11-.34.17-.69.17-1.06,0-.61-.22-1.09-.65-1.44-.43-.35-1.11-.53-2.04-.53-.99,0-1.95.14-2.86.42-.91.28-1.42.6-1.51.97-.05.16-.04.29.02.38.06.1.18.21.34.34.16.11.28.22.36.32.08.1.12.24.12.42,0,.1-.02.22-.07.36l-1.54,5.02c-.16.48-.24.94-.24,1.39,0,.99.38,1.76,1.14,2.32.76.55,1.7.83,2.82.83.72,0,1.43-.16,2.13-.49.7-.33,1.33-.81,1.91-1.45.16.62.52,1.13,1.08,1.51.56.38,1.31.58,2.26.58.75,0,1.43-.14,2.04-.43.61-.29,1.08-.65,1.42-1.09.34-.44.5-.88.48-1.33,0-.14-.03-.27-.08-.37Z"/>
  <path d="M161.23,91.72c-.14-.11-.26-.23-.34-.35-.08-.12-.12-.28-.12-.49,0-.14.02-.31.07-.5l3.77-12.25c.11-.34.17-.68.17-1.03,0-.61-.22-1.09-.66-1.44-.44-.35-1.12-.53-2.05-.53-.99,0-1.94.14-2.86.41-.91.27-1.42.59-1.51.96-.05.16-.04.29.04.38.07.1.19.21.35.34.14.11.26.22.35.34.09.11.13.26.13.43,0,.1-.02.22-.07.36l-3.65,11.98c-.11.38-.25.66-.41.84-.16.18-.36.33-.6.46-.27.14-.44.31-.5.5-.06.22,0,.4.19.54.19.14.5.2.91.2h5.48c.5,0,.86-.05,1.1-.14.24-.1.4-.25.48-.46.03-.11.02-.2-.02-.28s-.13-.16-.24-.28Z"/>
  <path d="M172.72,89.98c-.06-.07-.14-.11-.25-.11-.14,0-.31.02-.5.07-.38.06-.7.1-.96.1-.29,0-.51-.06-.67-.17-.16-.11-.24-.31-.24-.6,0-.26.04-.5.12-.74l1.8-5.93h1.39c.75,0,1.23-.35,1.44-1.06.03-.16.05-.27.05-.34,0-.22-.08-.4-.25-.53-.17-.13-.4-.19-.71-.19h-1.27l.34-1.1c.06-.21.1-.43.1-.67,0-.77-.5-1.15-1.51-1.15-.71,0-1.28.1-1.72.31-.44.21-.92.58-1.45,1.1l-1.51,1.51h-1.34c-.45,0-.78.06-.98.17-.21.11-.34.27-.41.48-.05.21-.02.39.07.54.1.15.26.34.5.56.27.24.48.47.64.7.15.22.23.5.23.82,0,.16-.04.38-.12.65l-1.54,4.76c-.13.37-.19.75-.19,1.15,0,.86.33,1.55.99,2.04.66.5,1.53.74,2.62.74,1.01,0,1.93-.16,2.76-.49.83-.33,1.49-.72,1.98-1.18.49-.46.72-.84.71-1.16,0-.11-.03-.2-.08-.28Z"/>
  <path d="M181.09,79.54c.48,0,.92-.12,1.31-.37.39-.25.7-.57.91-.97.22-.4.32-.81.32-1.22,0-.59-.21-1.09-.62-1.5-.42-.41-.94-.61-1.56-.61-.5,0-.94.13-1.32.38-.38.26-.68.58-.89.97-.21.39-.31.79-.31,1.19.02.61.23,1.12.64,1.52.41.41.92.61,1.53.61Z"/>
  <path d="M180.54,91.72c-.14-.11-.26-.23-.34-.35-.08-.12-.12-.28-.12-.49,0-.14.02-.31.07-.5l2.21-7.18c.11-.34.17-.69.17-1.06,0-.61-.22-1.09-.65-1.44-.43-.35-1.11-.53-2.04-.53-.99,0-1.95.14-2.86.42-.91.28-1.42.6-1.51.97-.05.16-.04.29.02.38.06.1.18.21.34.34.16.11.28.22.36.32.08.1.12.24.12.42,0,.1-.02.22-.07.36l-2.09,6.94c-.11.38-.25.66-.41.84-.16.18-.36.33-.6.46-.27.14-.44.31-.5.5-.06.22,0,.4.19.54.19.14.5.2.91.2h5.48c.5,0,.86-.05,1.1-.14.24-.1.4-.25.48-.46.03-.11.02-.2-.02-.28-.05-.07-.13-.16-.24-.28Z"/>
  <path d="M198.02,91.59c.32-.44.47-.89.46-1.36,0-.14-.02-.27-.07-.37-.05-.1-.11-.16-.19-.16-.05,0-.14.08-.28.25-.14.17-.3.25-.49.25-.1,0-.17-.03-.23-.1-.06-.06-.08-.15-.08-.26,0-.13.02-.22.05-.29l1.46-4.73c.16-.48.24-.97.24-1.46,0-.94-.3-1.71-.9-2.31-.6-.59-1.39-.89-2.37-.89-.86,0-1.67.18-2.4.54-.74.36-1.43,1.01-2.09,1.96.05-.78-.16-1.4-.62-1.84-.46-.44-1.1-.66-1.9-.66-.99,0-1.94.14-2.86.42-.91.28-1.42.6-1.51.97-.05.16-.04.29.02.38.06.1.18.21.34.34.16.14.28.26.35.36.07.1.11.23.11.41,0,.14-.02.26-.05.34l-2.14,6.94c-.11.38-.25.66-.41.84-.16.18-.36.33-.6.46-.27.14-.44.31-.5.5-.05.22.02.4.2.54.18.14.48.2.9.2h5.48c.51,0,.89-.05,1.13-.14.24-.1.39-.25.46-.46.03-.11.02-.21-.02-.29-.05-.08-.13-.17-.24-.26-.14-.13-.26-.25-.34-.37-.08-.12-.12-.28-.12-.47,0-.16.03-.33.1-.5l1.49-4.9c.14-.48.38-.88.7-1.21.32-.33.66-.49,1.01-.49.19,0,.36.06.49.18.14.12.2.28.2.49,0,.13-.04.3-.12.5l-1.32,3.46c-.29.74-.43,1.4-.43,1.99.02.82.34,1.47.96,1.96.62.49,1.46.73,2.52.73.86,0,1.6-.14,2.22-.42.62-.28,1.08-.64,1.4-1.08Z"/>
  <path d="M216.77,77.47c-.31-.38-.71-.67-1.2-.89-.49-.22-.99-.32-1.5-.32-.8,0-1.4.22-1.79.65-.39.43-.59.95-.59,1.56,0,.35.07.74.2,1.16.14.42.32.82.56,1.19-1.09-.5-2.59-.74-4.49-.74-1.22,0-2.34.2-3.36.6-1.02.4-1.87.94-2.52,1.62-.66.68-1.08,1.44-1.27,2.27-.1.38-.14.75-.14,1.1,0,1.26.6,2.22,1.8,2.88-1.25.4-2,1.02-2.26,1.85-.05.19-.07.38-.07.55,0,.51.19.95.58,1.32-1.15.1-1.98.29-2.49.59-.5.3-.83.68-.97,1.14-.06.26-.1.45-.1.58,0,.58.27,1.1.8,1.57.54.47,1.35.84,2.44,1.12,1.09.27,2.42.41,3.99.41,1.76,0,3.26-.17,4.49-.5,1.23-.34,2.19-.77,2.87-1.31.68-.54,1.12-1.12,1.31-1.74.1-.3.14-.6.14-.89,0-.78-.34-1.39-1.03-1.81-.69-.42-1.65-.64-2.88-.64h-3.6c-.45,0-.77-.07-.96-.2-.19-.14-.29-.31-.29-.52,0-.3.12-.56.36-.77.82.13,1.69.19,2.62.19,1.22,0,2.33-.2,3.35-.59,1.02-.39,1.85-.93,2.5-1.62.65-.69,1.07-1.45,1.26-2.28.08-.43.12-.8.12-1.1,0-.69-.17-1.28-.5-1.78-.13-.3-.24-.63-.32-.98-.09-.35-.13-.66-.13-.91,0-.21.02-.37.07-.48.27.13.51.22.71.28.2.06.48.08.85.08,1.28,0,1.92-.47,1.92-1.42,0-.43-.16-.84-.47-1.21ZM206.38,93.21c.27,0,.48.06.62.17.14.11.22.26.22.46,0,.45-.25.79-.76,1.03-.5.24-1.16.36-1.96.36-.66,0-1.14-.09-1.45-.26-.31-.18-.48-.46-.49-.86,0-.4.1-.72.29-.96.37.05.78.07,1.22.07h2.31ZM208.85,84.78c-.3.99-.61,1.69-.91,2.09-.3.4-.66.6-1.06.6-.45,0-.67-.26-.67-.79,0-.43.13-1.06.38-1.9.3-1.01.6-1.71.9-2.1.3-.39.64-.59,1.04-.59.46,0,.7.27.7.82,0,.43-.13,1.06-.38,1.87Z"/>
</svg>