<?xml version="1.0" encoding="iso-8859-1"?>
<!-- Uploaded to: SVG Repo, www.svgrepo.com, Generator: SVG Repo Mixer Tools -->
<svg height="800px" width="800px" version="1.1" id="Layer_1" xmlns="http://www.w3.org/2000/svg" xmlns:xlink="http://www.w3.org/1999/xlink" 
	 viewBox="0 0 503.469 503.469" xml:space="preserve">
<g>
	<g>
		<path style="fill:#DD342E;" d="M264.534,170.669c-1.306,0-2.62-0.299-3.814-0.896l-34.133-17.067
			c-2.227-1.118-3.857-3.149-4.463-5.564l-8.533-34.133c-0.495-1.98-0.265-4.07,0.64-5.888l6.955-13.909l-7.407-22.246
			c-0.29-0.87-0.444-1.783-0.444-2.697V34.135c0-3.021,1.604-5.82,4.207-7.356c2.611-1.536,5.845-1.562,8.465-0.102l38.528,21.402
			l38.528-21.402c2.62-1.468,5.854-1.442,8.465,0.102c2.603,1.536,4.207,4.335,4.207,7.356v34.133c0,0.913-0.154,1.826-0.444,2.697
			l-7.407,22.246l6.955,13.909c0.905,1.818,1.135,3.908,0.64,5.888l-8.533,34.133c-0.606,2.415-2.236,4.446-4.463,5.564
			l-34.133,17.067C267.154,170.37,265.84,170.669,264.534,170.669"/>
		<path style="fill:#DD342E;" d="M392.534,221.869c-1.306,0-2.62-0.299-3.814-0.896l-34.133-17.067
			c-2.227-1.118-3.857-3.149-4.463-5.564l-8.533-34.133c-0.495-1.98-0.265-4.07,0.64-5.888l6.955-13.909l-7.407-22.246
			c-0.29-0.87-0.444-1.783-0.444-2.697V85.335c0-3.021,1.604-5.82,4.207-7.356c2.611-1.536,5.845-1.57,8.465-0.102l38.528,21.402
			l38.528-21.402c2.628-1.476,5.862-1.434,8.465,0.102c2.603,1.536,4.207,4.335,4.207,7.356v34.133c0,0.913-0.154,1.826-0.444,2.697
			l-7.407,22.246l6.955,13.909c0.905,1.818,1.135,3.908,0.64,5.888l-8.533,34.133c-0.606,2.415-2.236,4.446-4.463,5.564
			l-34.133,17.067C395.154,221.57,393.84,221.869,392.534,221.869"/>
	</g>
	<path style="fill:#D69C77;" d="M102.401,170.669c-14.114,0-25.6,11.486-25.6,25.6v136.533c0,32.939,26.803,59.733,59.733,59.733
		h25.6c13.099,0,25.071,4.949,34.133,13.073v-115.49c-7.134,5.359-16,8.55-25.6,8.55c-23.526,0-42.667-19.14-42.667-42.667v-59.733
		C128.001,182.155,116.515,170.669,102.401,170.669 M204.801,452.269c-4.719,0-8.533-3.823-8.533-8.533
		c0-18.825-15.309-34.133-34.133-34.133h-25.6c-42.351,0-76.8-34.458-76.8-76.8V196.269c0-23.526,19.14-42.667,42.667-42.667
		s42.667,19.14,42.667,42.667v59.733c0,14.114,11.486,25.6,25.6,25.6s25.6-11.486,25.6-25.6c0-4.71,3.814-8.533,8.533-8.533
		s8.533,3.823,8.533,8.533v187.733C213.334,448.446,209.52,452.269,204.801,452.269"/>
	<g>
		<path style="fill:#C7CFE3;" d="M264.534,230.402c-4.719,0-8.533-3.823-8.533-8.533V25.602c0-4.71,3.814-8.533,8.533-8.533
			s8.533,3.823,8.533,8.533v196.267C273.068,226.579,269.253,230.402,264.534,230.402"/>
		<path style="fill:#C7CFE3;" d="M264.534,34.135c-2.185,0-4.369-0.836-6.033-2.5c-3.337-3.337-3.337-8.73,0-12.066l17.067-17.067
			c3.337-3.337,8.73-3.337,12.066,0c3.337,3.337,3.337,8.73,0,12.066l-17.067,17.067C268.903,33.299,266.719,34.135,264.534,34.135"
			/>
		<path style="fill:#C7CFE3;" d="M264.534,34.135c-2.185,0-4.369-0.836-6.033-2.5l-17.067-17.067c-3.337-3.337-3.337-8.73,0-12.066
			c3.337-3.337,8.73-3.337,12.066,0l17.067,17.067c3.337,3.337,3.337,8.73,0,12.066C268.903,33.299,266.719,34.135,264.534,34.135"
			/>
		<path style="fill:#C7CFE3;" d="M392.534,273.069c-4.719,0-8.533-3.823-8.533-8.533V76.802c0-4.71,3.814-8.533,8.533-8.533
			c4.719,0,8.533,3.823,8.533,8.533v187.733C401.068,269.246,397.253,273.069,392.534,273.069"/>
		<path style="fill:#C7CFE3;" d="M392.534,85.335c-2.185,0-4.369-0.836-6.033-2.5c-3.337-3.337-3.337-8.73,0-12.066l17.067-17.067
			c3.337-3.337,8.73-3.337,12.066,0c3.337,3.337,3.337,8.73,0,12.066l-17.067,17.067C396.904,84.499,394.719,85.335,392.534,85.335"
			/>
		<path style="fill:#C7CFE3;" d="M392.534,85.335c-2.185,0-4.369-0.836-6.033-2.5l-17.067-17.067c-3.337-3.337-3.337-8.73,0-12.066
			s8.73-3.337,12.066,0l17.067,17.067c3.337,3.337,3.337,8.73,0,12.066C396.904,84.499,394.719,85.335,392.534,85.335"/>
	</g>
	<path style="fill:#26B99A;" d="M435.201,264.535v167.27c0,39.578-32.085,71.663-71.663,71.663h-95.607
		c-39.578,0-71.663-32.085-71.663-71.663v-244.07L435.201,264.535z"/>
	<path style="fill:#F0C419;" d="M298.668,384.002c0,30.797-17.067,51.2-17.067,51.2h17.067l17.067,17.067l17.067-17.067h17.067
		c0,0-17.067-20.403-17.067-51.2c30.797,0,51.2,17.067,51.2,17.067v-17.067l17.067-17.067l-17.067-17.067v-17.067
		c0,0-20.403,17.067-51.2,17.067c0-30.797,17.067-51.2,17.067-51.2h-17.067l-17.067-17.067l-17.067,17.067h-17.067
		c0,0,17.067,20.403,17.067,51.2c-30.797,0-51.2-17.067-51.2-17.067v17.067l-17.067,17.067l17.067,17.067v17.067
		C247.468,401.069,267.871,384.002,298.668,384.002"/>
</g>
</svg>